<svg version="1.1" viewBox="0.0 0.0 960.0 720.0" fill="none" stroke="none" stroke-linecap="square" stroke-miterlimit="10" xmlns:xlink="http://www.w3.org/1999/xlink" xmlns="http://www.w3.org/2000/svg"><clipPath id="p.0"><path d="m0 0l960.0 0l0 720.0l-960.0 0l0 -720.0z" clip-rule="nonzero"/></clipPath><g clip-path="url(#p.0)"><path fill="#000000" fill-opacity="0.0" d="m0 0l960.0 0l0 720.0l-960.0 0z" fill-rule="evenodd"/><path fill="#cfe2f3" d="m371.86877 360.0l0 0c0 -61.325348 48.416687 -111.03937 108.14172 -111.03937l0 0c28.68097 0 56.187256 11.698761 76.46777 32.522675c20.280518 20.823914 31.67395 49.06723 31.67395 78.51669l0 0c0 61.325348 -48.416687 111.03937 -108.14172 111.03937l0 0c-59.725037 0 -108.14172 -49.71402 -108.14172 -111.03937z" fill-rule="evenodd"/><path stroke="#000000" stroke-width="4.0" stroke-linejoin="round" stroke-linecap="butt" d="m371.86877 360.0l0 0c0 -61.325348 48.416687 -111.03937 108.14172 -111.03937l0 0c28.68097 0 56.187256 11.698761 76.46777 32.522675c20.280518 20.823914 31.67395 49.06723 31.67395 78.51669l0 0c0 61.325348 -48.416687 111.03937 -108.14172 111.03937l0 0c-59.725037 0 -108.14172 -49.71402 -108.14172 -111.03937z" fill-rule="evenodd"/><path fill="#cfe2f3" d="m457.3832 197.90552l41.448822 0l0 324.18896l-41.448822 0z" fill-rule="evenodd"/><path stroke="#000000" stroke-width="4.0" stroke-linejoin="round" stroke-linecap="butt" d="m457.3832 197.90552l41.448822 0l0 324.18896l-41.448822 0z" fill-rule="evenodd"/><path fill="#cfe2f3" d="m350.71915 260.03162l29.322845 -29.322845l229.25983 229.25983l-29.322815 29.322845z" fill-rule="evenodd"/><path stroke="#000000" stroke-width="4.0" stroke-linejoin="round" stroke-linecap="butt" d="m350.71915 260.03162l29.322845 -29.322845l229.25983 229.25983l-29.322815 29.322845z" fill-rule="evenodd"/><path fill="#cfe2f3" d="m578.07294 230.10056l29.29132 29.322845l-229.22836 229.22833l-29.29132 -29.322845z" fill-rule="evenodd"/><path stroke="#000000" stroke-width="4.0" stroke-linejoin="round" stroke-linecap="butt" d="m578.07294 230.10056l29.29132 29.322845l-229.22836 229.22833l-29.29132 -29.322845z" fill-rule="evenodd"/><path fill="#cfe2f3" d="m642.09344 338.64703l0 41.44879l-324.18896 0l0 -41.44879z" fill-rule="evenodd"/><path stroke="#000000" stroke-width="4.0" stroke-linejoin="round" stroke-linecap="butt" d="m642.09344 338.64703l0 41.44879l-324.18896 0l0 -41.44879z" fill-rule="evenodd"/><path fill="#cfe2f3" d="m375.08136 360.0l0 0c0 -59.5076 46.978394 -107.74803 104.92914 -107.74803l0 0c27.828949 0 54.518066 11.352005 74.196106 31.55867c19.67804 20.206665 30.733032 47.612793 30.733032 76.18936l0 0c0 59.5076 -46.978394 107.74802 -104.92914 107.74802l0 0c-57.950745 0 -104.92914 -48.240417 -104.92914 -107.74802z" fill-rule="evenodd"/><path fill="#76a5af" d="m392.8294 359.3727l0 0c0 -48.148804 39.032288 -87.18112 87.18109 -87.18112l0 0c23.121857 0 45.29669 9.18515 61.646362 25.53476c16.34961 16.34964 25.534729 38.524475 25.534729 61.646362l0 0c0 48.148773 -39.032288 87.18109 -87.18109 87.18109l0 0c-48.148804 0 -87.18109 -39.03232 -87.18109 -87.18109z" fill-rule="evenodd"/><path stroke="#000000" stroke-width="4.0" stroke-linejoin="round" stroke-linecap="butt" d="m392.8294 359.3727l0 0c0 -48.148804 39.032288 -87.18112 87.18109 -87.18112l0 0c23.121857 0 45.29669 9.18515 61.646362 25.53476c16.34961 16.34964 25.534729 38.524475 25.534729 61.646362l0 0c0 48.148773 -39.032288 87.18109 -87.18109 87.18109l0 0c-48.148804 0 -87.18109 -39.03232 -87.18109 -87.18109z" fill-rule="evenodd"/><path fill="#000000" fill-opacity="0.0" d="m402.3937 307.22833l155.21262 0l0 105.543335l-155.21262 0z" fill-rule="evenodd"/><path fill="#000000" d="m432.29117 318.66l5.0625 0q7.03125 0 11.859375 4.453125q4.828125 4.453125 4.828125 11.375q0 4.203125 -2.6875 8.546875q-2.6875 4.328125 -3.671875 3.640625q5.015625 0.234375 10.34375 6.828125q5.328125 6.578125 5.328125 16.53125q0 9.9375 -7.609375 17.28125q-7.59375 7.34375 -18.390625 7.34375l-5.0625 0l0 -76.0zm5.84375 30.71875l0 39.8125l0 -1.21875q7.40625 0 12.828125 -5.546875q5.421875 -5.546875 5.421875 -13.1875q0 -7.640625 -5.375 -13.140625q-5.375 -5.5 -12.875 -5.5l0 -1.21875zm0 -25.25l0 21.09375l0 -1.21875q3.453125 0 6.1875 -2.890625q2.75 -2.90625 2.75 -6.65625q0 -3.75 -2.6875 -6.421875q-2.671875 -2.6875 -6.25 -2.6875l0 -1.21875zm64.9082 -5.46875l6.125 0q10.1250305 0 17.765656 7.453125q7.656189 7.4375 7.656189 17.546875q0 10.109375 -7.796814 17.5q-7.796875 7.390625 -16.859406 7.390625l0 -1.71875l28.74997 27.828125l-9.640564 0l-18.93753 -19.84375l0 19.84375l-7.0625 0l0 -76.0zm6.796875 43.375l0 -0.265625q6.9531555 0 12.3125305 -5.359375q5.375 -5.375 5.375 -12.703125q0 -7.328125 -5.5625 -12.796875q-5.546875 -5.46875 -12.6094055 -5.46875l0 -0.75l0.484375 37.34375z" fill-rule="nonzero"/></g></svg>