<svg version="1.1" viewBox="0.0 0.0 960.0 720.0" fill="none" stroke="none" stroke-linecap="square" stroke-miterlimit="10" xmlns:xlink="http://www.w3.org/1999/xlink" xmlns="http://www.w3.org/2000/svg"><clipPath id="p.0"><path d="m0 0l960.0 0l0 720.0l-960.0 0l0 -720.0z" clip-rule="nonzero"/></clipPath><g clip-path="url(#p.0)"><path fill="#000000" fill-opacity="0.0" d="m0 0l960.0 0l0 720.0l-960.0 0z" fill-rule="evenodd"/><path fill="#cfe2f3" d="m244.01212 360.32773l0 0c0 -133.65291 105.526825 -242.0 235.70078 -242.0l0 0c62.51172 0 122.463135 25.496353 166.66565 70.88016c44.202454 45.383804 69.03516 106.93744 69.03516 171.11984l0 0c0 133.65292 -105.526855 242.00003 -235.7008 242.00003l0 0c-130.17395 0 -235.70078 -108.34711 -235.70078 -242.00003z" fill-rule="evenodd"/><path stroke="#000000" stroke-width="4.0" stroke-linejoin="round" stroke-linecap="butt" d="m244.01212 360.32773l0 0c0 -133.65291 105.526825 -242.0 235.70078 -242.0l0 0c62.51172 0 122.463135 25.496353 166.66565 70.88016c44.202454 45.383804 69.03516 106.93744 69.03516 171.11984l0 0c0 133.65292 -105.526855 242.00003 -235.7008 242.00003l0 0c-130.17395 0 -235.70078 -108.34711 -235.70078 -242.00003z" fill-rule="evenodd"/><path fill="#cfe2f3" d="m430.38306 7.0577426l90.299194 0l0 706.5512l-90.299194 0z" fill-rule="evenodd"/><path stroke="#000000" stroke-width="4.0" stroke-linejoin="round" stroke-linecap="butt" d="m430.38306 7.0577426l90.299194 0l0 706.5512l-90.299194 0z" fill-rule="evenodd"/><path fill="#cfe2f3" d="m197.91844 142.4559l63.905502 -63.90551l499.68503 499.68503l-63.905518 63.905518z" fill-rule="evenodd"/><path stroke="#000000" stroke-width="4.0" stroke-linejoin="round" stroke-linecap="butt" d="m197.91844 142.4559l63.905502 -63.90551l499.68503 499.68503l-63.905518 63.905518z" fill-rule="evenodd"/><path fill="#cfe2f3" d="m693.4153 77.22391l63.874023 63.905502l-499.59055 499.59058l-63.874023 -63.905518z" fill-rule="evenodd"/><path stroke="#000000" stroke-width="4.0" stroke-linejoin="round" stroke-linecap="butt" d="m693.4153 77.22391l63.874023 63.905502l-499.59055 499.59058l-63.874023 -63.905518z" fill-rule="evenodd"/><path fill="#cfe2f3" d="m832.94226 313.79108l0 90.299194l-706.5512 0l0 -90.299194z" fill-rule="evenodd"/><path stroke="#000000" stroke-width="4.0" stroke-linejoin="round" stroke-linecap="butt" d="m832.94226 313.79108l0 90.299194l-706.5512 0l0 -90.299194z" fill-rule="evenodd"/><path fill="#cfe2f3" d="m251.01367 360.3198l0 0c0 -129.68689 102.38931 -234.8189 228.6929 -234.8189l0 0c60.653168 0 118.82211 24.739777 161.7103 68.77687c42.888245 44.03708 66.982605 103.76419 66.982605 166.04202l0 0c0 129.68689 -102.38928 234.81888 -228.6929 234.81888l0 0c-126.30359 0 -228.6929 -105.13199 -228.6929 -234.81888z" fill-rule="evenodd"/><path fill="#76a5af" d="m289.6939 358.95752l0 0c0 -104.9341 85.06589 -190.0 190.0 -190.0l0 0c50.391113 0 98.71838 20.017792 134.35028 55.649704c35.631897 35.631912 55.64972 83.95915 55.64972 134.3503l0 0c0 104.93411 -85.06592 190.0 -190.0 190.0l0 0c-104.93411 0 -190.0 -85.06589 -190.0 -190.0z" fill-rule="evenodd"/><path stroke="#000000" stroke-width="4.0" stroke-linejoin="round" stroke-linecap="butt" d="m289.6939 358.95752l0 0c0 -104.9341 85.06589 -190.0 190.0 -190.0l0 0c50.391113 0 98.71838 20.017792 134.35028 55.649704c35.631897 35.631912 55.64972 83.95915 55.64972 134.3503l0 0c0 104.93411 -85.06592 190.0 -190.0 190.0l0 0c-104.93411 0 -190.0 -85.06589 -190.0 -190.0z" fill-rule="evenodd"/><path fill="#000000" fill-opacity="0.0" d="m310.53842 245.31693l338.26773 0l0 230.04724l-338.26773 0z" fill-rule="evenodd"/><path fill="#000000" d="m380.27225 274.02805l10.5625 0q14.625 0 24.6875 9.265625q10.0625 9.265625 10.0625 23.6875q0 8.796875 -5.59375 17.8125q-5.59375 9.015625 -7.625 7.59375q10.421875 0.5 21.515625 14.21875q11.109375 13.703125 11.109375 34.421875q0 20.71875 -15.84375 36.015625q-15.84375 15.296875 -38.3125 15.296875l-10.5625 0l0 -158.3125zm12.15625 63.953125l0 83.015625l0 -2.5625q15.453125 0 26.75 -11.5625q11.296875 -11.578125 11.296875 -27.484375q0 -15.921875 -11.203125 -27.375q-11.1875 -11.46875 -26.84375 -11.46875l0 -2.5625zm0 -52.609375l0 44.015625l0 -2.5625q7.203125 0 12.921875 -6.046875q5.71875 -6.046875 5.71875 -13.859375q0 -7.8125 -5.578125 -13.390625q-5.578125 -5.59375 -13.0625 -5.59375l0 -2.5625zm135.2438 -11.34375l12.75 0q21.09375 0 37.03125 15.5q15.9375 15.5 15.9375 36.578125q0 21.0625 -16.25 36.453125q-16.25 15.375 -35.109375 15.375l0 -3.546875l59.875 57.953125l-20.0625 0l-39.453125 -41.375l0 41.375l-14.71875 0l0 -158.3125zm14.15625 90.359375l0 -0.5625q14.484375 0 25.65625 -11.171875q11.1875 -11.1875 11.1875 -26.453125q0 -15.28125 -11.578125 -26.671875q-11.5625 -11.390625 -26.265625 -11.390625l0 -1.5625l1.0 77.8125z" fill-rule="nonzero"/></g></svg>